# xmcd
#
# Track frame offsets:
#	150
#	12291
#	23468
#	33714
#	45523
#	59943
#	74596
#	87799
#	97984
#	108611
#	121249
#	130949
#	144066
#	155716
#	165796
#	177539
#
# Disc length: 2521 seconds
#
# Revision: 1
# Processed by: cddbd v1.5.2PL0 Copyright (c) Steve Scherf et al.
# Submitted via: EZCDAudioConverter 6.0.5.1
#
DISCID=d309d710
DTITLE=Various Artist - Your Cheatin' Heart
DYEAR=2004
DGENRE=Country
TTITLE0=Hank Williams - Your Cheatin' Heart
TTITLE1=Kitty Wells - There's Poison in My Heart
TTITLE2=Jerry Wallace - Your Singing Our Love Song to Somebody
TTITLE3=Porter Wagoner - Crumbs From Another Man's Table
TTITLE4=Townes Van Zandt - When She Don't Need Me
TTITLE5=Kenny Rogers and The First Edition - Tell It All Brother
TTITLE6=Tex Ritter - Jealous Heart
TTITLE7=Dolly Parton - Release Me
TTITLE8=Willie Nelson - Go Away
TTITLE9=Bill Monroe - Sweetheart You Done Me Wrong
TTITLE10=Jerry Lee Lewis - I'm the Guilty One
TTITLE11=Tom Jones - He Stopped Loving Her Today
TTITLE12=Charlie Feathers - I've Been Deceived
TTITLE13=Patsy Cline - Three Cigarettes in An Ashtray
TTITLE14=Johnny Cash - Thanks a Lot
TTITLE15=Eddy Arnold - Don't Rob Another Man's Castle
EXTD=
EXTT0=
EXTT1=
EXTT2=
EXTT3=
EXTT4=
EXTT5=
EXTT6=
EXTT7=
EXTT8=
EXTT9=
EXTT10=
EXTT11=
EXTT12=
EXTT13=
EXTT14=
EXTT15=
PLAYORDER=
